    <svg
        xmlns="http://www.w3.org/2000/svg"
        width="100"
        height="100"
        viewBox="0 0 100 100"
        fill="none"
        stroke="currentColor"
        stroke-width="5"
        stroke-linecap="round"
        stroke-linejoin="round"
      >
        <defs>
          <g id="segment-h">
            <path d="M0 0 q 40 15 80 0" />
          </g>
          <g id="segment-v">
            <path d="M0 0 q 15 40 0 80" />
          </g>
          <g id="loop">
            <path d="M 0 0 c -18 -7 3 -28 10 -10" />
          </g>
        </defs>
        <use href="#segment-h" x="10" y="20" />
        <use href="#segment-v" x="20" y="10" />
        <use href="#segment-h" x="90" y="80" transform="rotate(180, 90, 80)" />
        <use href="#segment-v" x="80" y="90" transform="rotate(180, 80, 90)" />
        <use href="#loop" x="10" y="20" />
        <use href="#loop" x="80" y="10" transform="rotate(90, 80, 10)" />
        <use href="#loop" x="20" y="90" transform="rotate(270, 20, 90)" />
        <use href="#loop" x="90" y="80" transform="rotate(180, 90, 80)" />
        <path d="M 35 35 l 30 30" />
        <path d="M 65 35 l -30 30" />
        <circle cx="50" cy="38" r="1" fill="currentColor" />
        <circle cx="50" cy="62" r="1" fill="currentColor" />
        <circle cx="38" cy="50" r="1" fill="currentColor" />
        <circle cx="62" cy="50" r="1" fill="currentColor" />
    </svg>